<?xml version="1.0" encoding="utf-8"?>
<!-- Generator: Adobe Illustrator 27.1.1, SVG Export Plug-In . SVG Version: 6.00 Build 0)  -->
<svg version="1.1" id="Layer_1" xmlns="http://www.w3.org/2000/svg" xmlns:xlink="http://www.w3.org/1999/xlink" x="0px" y="0px"
	 viewBox="0 0 595.28 841.89" style="enable-background:new 0 0 595.28 841.89;" xml:space="preserve">
<style type="text/css">
	.st0{fill:#C3DAE2;}
	.st1{opacity:0.1;fill:#694929;}
	.st2{opacity:0.39;fill:#FFFFFF;}
	.st3{opacity:0.34;fill:#FFFFFF;}
</style>
<polygon class="st0" points="297.36,384.37 269.81,384.37 274.91,457.37 297.36,457.37 319.81,457.37 324.91,384.37 "/>
<path class="st1" d="M318.61,419.56l-3.15,32.81h-35.14l-4.03-32.63c2.23,12.15,10.44,20.91,21.06,20.91
	C307.81,440.66,316.17,431.45,318.61,419.56z"/>
<path class="st2" d="M318.42,402.37l-0.23,5.03l-0.83,8.97c-2.24,11.25-10.12,20-20,20c-10.37,0-18.29-8.89-20-21l-0.52-5.95
	l-0.36-7.05H318.42z"/>
<path class="st3" d="M288.36,387.37h-13l0.93,13.32c0,0-0.93-11.32,2.07-11.32C281.36,388.37,288.36,387.37,288.36,387.37z"/>
</svg>
