<?xml version="1.0" encoding="utf-8"?>
<!-- Generator: Adobe Illustrator 27.1.1, SVG Export Plug-In . SVG Version: 6.00 Build 0)  -->
<svg version="1.1" id="Layer_1" xmlns="http://www.w3.org/2000/svg" xmlns:xlink="http://www.w3.org/1999/xlink" x="0px" y="0px"
	 viewBox="0 0 595.28 841.89" style="enable-background:new 0 0 595.28 841.89;" xml:space="preserve">
<style type="text/css">
	.st0{fill:#C3DAE2;}
	.st1{fill:#801832;}
	.st2{opacity:0.47;fill:#FFFFFF;}
	.st3{opacity:0.11;fill:#694929;}
</style>
<path class="st0" d="M305.1,536.12c0.04-2.41-0.24-110.47-0.24-110.47c32.88-4.36,58.5-39.11,58.5-81.33c0-2.93-0.13-8.69-0.13-8.69
	c-0.65-17.81-3.81-34.48-8.88-49.01h-0.16h-56.83h-56.83h-0.16c-5.07,14.54-8.23,31.2-8.88,49.01c0,0-0.13,5.75-0.13,8.69
	c0,42.22,25.62,76.96,58.5,81.33c0,0-0.28,108.07-0.24,110.47c0.26,15-70.26,15-70.26,15v4h78h78v-4
	C375.36,551.12,304.84,551.12,305.1,536.12z"/>
<path class="st1" d="M237.44,349.06c0.96,40.48,27.67,72.94,60.5,72.94s59.54-32.46,60.5-72.94H237.44z"/>
<path class="st2" d="M350.44,289.78v-1h-104v0.5h-0.49c-18.49,86.5,18.49,108.5,18.49,108.5c-27.42-49.18-9.93-102.37-7.95-108
	H350.44z"/>
<path class="st3" d="M300.94,536.78L300.94,536.78c-0.83,0-1.5-0.67-1.5-1.5v-107c0-0.83,0.67-1.5,1.5-1.5l0,0
	c0.83,0,1.5,0.67,1.5,1.5v107C302.44,536.1,301.77,536.78,300.94,536.78z"/>
</svg>
