<?xml version="1.0" encoding="utf-8"?>
<!-- Generator: Adobe Illustrator 27.1.1, SVG Export Plug-In . SVG Version: 6.00 Build 0)  -->
<svg version="1.1" id="Layer_1" xmlns="http://www.w3.org/2000/svg" xmlns:xlink="http://www.w3.org/1999/xlink" x="0px" y="0px"
	 viewBox="0 0 595.28 841.89" style="enable-background:new 0 0 595.28 841.89;" xml:space="preserve">
<style type="text/css">
	.st0{fill:#C3DAE2;}
	.st1{opacity:0.88;fill:#EFE475;}
	.st2{opacity:0.11;fill:#694929;}
	.st3{opacity:0.47;fill:#FFFFFF;}
	.st4{opacity:0.1;fill:#5B3826;}
</style>
<path class="st0" d="M300.84,496.99c0.01-1.32-0.05-45.59-0.09-68.33c13.79-1.49,24.52-13.16,24.52-27.34
	c0-8.4-3.77-15.91-9.7-20.96c0.87-9.7,3.6-37.29,7.58-49.54c0.03-0.09-17.69-0.04-25.79-0.01c-8.1-0.03-25.82-0.08-25.79,0.01
	c3.98,12.25,6.71,39.84,7.58,49.54c-5.93,5.04-9.7,12.56-9.7,20.96c0,14.18,10.73,25.85,24.52,27.34
	c-0.03,22.74-0.1,67.01-0.09,68.33c0.12,11.07-31.6,11.07-31.6,11.07v2.95h35h0.09h0.09h35v-2.95
	C332.44,508.06,300.72,508.06,300.84,496.99z"/>
<path class="st1" d="M320.44,401.82c0,12.7-10.3,23-23,23s-23-10.3-23-23c0-2.08,0.28-4.09,0.8-6h44.4
	C320.16,397.73,320.44,399.74,320.44,401.82z"/>
<path class="st2" d="M298.95,497.82L298.95,497.82c-0.28,0-0.5-0.22-0.5-0.5v-68c0-0.28,0.22-0.5,0.5-0.5h0c0.28,0,0.5,0.22,0.5,0.5
	v68C299.44,497.6,299.22,497.82,298.95,497.82z"/>
<path class="st3" d="M277.96,400.82c-0.79-5.57,0.91-12.01,7.48-19c0,0-10.56,8.37-9.97,19H277.96z"/>
<path class="st4" d="M299.44,418.82c0,0,15.74-3,18.37-21C317.82,397.82,320.44,418.82,299.44,418.82z"/>
</svg>
