<?xml version="1.0" encoding="UTF-8" standalone="no" ?>
<!DOCTYPE svg PUBLIC "-//W3C//DTD SVG 1.1//EN" "http://www.w3.org/Graphics/SVG/1.1/DTD/svg11.dtd">
<svg xmlns="http://www.w3.org/2000/svg" xmlns:xlink="http://www.w3.org/1999/xlink" version="1.1" width="220" height="325" viewBox="0 0 220 325" xml:space="preserve">
<desc>Created with Fabric.js 3.6.6</desc>
<defs>
</defs>
<g transform="matrix(1 0 0 1 102.64 176.94)"  >
<g style=""   >
		<g transform="matrix(1 0 0 1 59.33 8.38)" id="Layer_1"  >
<path style="stroke: none; stroke-width: 1; stroke-dasharray: none; stroke-linecap: butt; stroke-dashoffset: 0; stroke-linejoin: miter; stroke-miterlimit: 4; fill: rgb(195,218,226); fill-rule: nonzero; opacity: 1;"  transform=" translate(-356.97, -429.33)" d="M 324.61 493.84 h -0.52 c -12.37 0 -22.44 -10.07 -22.44 -22.44 V 358.28 c 0 -12.38 10.07 -22.44 22.44 -22.44 h 65.76 c 12.37 0 22.44 10.07 22.44 22.44 V 471.4 c 0 12.34 -37.86 50.44 -50.83 51.42 L 324.61 493.84 z M 359.53 492.22 c 0.38 2.89 2.62 3.13 3.35 3.13 c 7.62 0 32.62 -26.6 32.62 -34.71 v -91.61 c 0 -9.04 -7.35 -16.39 -16.39 -16.39 h -44.26 c -9.04 0 -16.39 7.35 -16.39 16.39 v 91.61 c 0 8.9 7.12 16.16 15.96 16.39 L 359.53 492.22 z" stroke-linecap="round" />
</g>
		<g transform="matrix(1 0 0 1 59.34 8.39)" id="Layer_1"  >
<path style="stroke: none; stroke-width: 1; stroke-dasharray: none; stroke-linecap: butt; stroke-dashoffset: 0; stroke-linejoin: miter; stroke-miterlimit: 4; fill: rgb(195,218,226); fill-rule: nonzero; opacity: 1;"  transform=" translate(-356.98, -429.34)" d="M 389.86 337.34 c 11.55 0 20.94 9.39 20.94 20.94 V 471.4 c 0 4.31 -7.07 15.77 -20.58 29.31 c -12.63 12.67 -23.45 19.69 -28.32 20.54 l -35.95 -28.27 l -0.82 -0.64 h -1.04 c -11.55 0 -20.94 -9.39 -20.94 -20.94 V 358.28 c 0 -11.55 9.39 -20.94 20.94 -20.94 H 389.86 M 333.97 478.52 l 24.2 14.64 c 0.66 2.69 2.81 3.7 4.69 3.7 c 5.88 0 16.22 -10.44 20.39 -14.93 c 3.22 -3.46 13.73 -15.24 13.73 -21.28 v -91.61 c 0 -9.87 -8.03 -17.89 -17.89 -17.89 h -44.26 c -9.87 0 -17.89 8.03 -17.89 17.89 v 91.61 C 316.95 470.22 324.51 478.06 333.97 478.52 M 389.86 334.34 h -65.76 c -13.22 0 -23.94 10.72 -23.94 23.94 V 471.4 c 0 13.22 10.72 23.94 23.94 23.94 l 36.88 29 c 13.22 0 52.82 -39.72 52.82 -52.94 V 358.28 C 413.8 345.06 403.08 334.34 389.86 334.34 L 389.86 334.34 z M 362.87 493.85 c -1.2 0 -1.9 -0.76 -1.9 -2.51 l -26.13 -15.8 c -8.23 0 -14.89 -6.67 -14.89 -14.89 v -91.61 c 0 -8.23 6.67 -14.89 14.89 -14.89 h 44.26 c 8.23 0 14.89 6.67 14.89 14.89 v 91.61 C 394 467.67 369.9 493.85 362.87 493.85 L 362.87 493.85 z" stroke-linecap="round" />
</g>
		<g transform="matrix(1 0 0 1 -19.66 3.4)" id="Layer_1"  >
<path style="stroke: none; stroke-width: 1; stroke-dasharray: none; stroke-linecap: butt; stroke-dashoffset: 0; stroke-linejoin: miter; stroke-miterlimit: 4; fill: rgb(249,206,66); fill-rule: nonzero; opacity: 1;"  transform=" translate(-277.98, -424.34)" d="M 203.68 564.84 c -3.42 0 -6.2 -2.78 -6.2 -6.2 v -268.6 c 0 -3.42 2.78 -6.2 6.2 -6.2 h 148.6 c 3.42 0 6.2 2.78 6.2 6.2 v 268.6 c 0 3.42 -2.78 6.2 -6.2 6.2 H 203.68 z" stroke-linecap="round" />
</g>
		<g transform="matrix(1 0 0 1 -19.67 3.4)" id="Layer_1"  >
<path style="stroke: none; stroke-width: 1; stroke-dasharray: none; stroke-linecap: butt; stroke-dashoffset: 0; stroke-linejoin: miter; stroke-miterlimit: 4; fill: rgb(195,218,226); fill-rule: nonzero; opacity: 1;"  transform=" translate(-277.97, -424.34)" d="M 352.27 286.34 c 2.04 0 3.7 1.66 3.7 3.7 v 268.6 c 0 2.04 -1.66 3.7 -3.7 3.7 h -148.6 c -2.04 0 -3.7 -1.66 -3.7 -3.7 v -268.6 c 0 -2.04 1.66 -3.7 3.7 -3.7 H 352.27 M 352.27 281.34 h -148.6 c -4.81 0 -8.7 3.9 -8.7 8.7 v 268.6 c 0 4.81 3.9 8.7 8.7 8.7 h 148.6 c 4.81 0 8.7 -3.9 8.7 -8.7 v -268.6 C 360.97 285.24 357.08 281.34 352.27 281.34 L 352.27 281.34 z" stroke-linecap="round" />
</g>
		<g transform="matrix(1 0 0 1 -19.66 134.9)" id="Layer_1"  >
<path style="stroke: none; stroke-width: 1; stroke-dasharray: none; stroke-linecap: butt; stroke-dashoffset: 0; stroke-linejoin: miter; stroke-miterlimit: 4; fill: rgb(195,218,226); fill-rule: nonzero; opacity: 1;"  transform=" translate(-277.98, -555.85)" d="M 204.7 566.84 c -4.53 0 -8.22 -3.69 -8.22 -8.22 v -5.55 c 0 -4.53 3.69 -8.22 8.22 -8.22 h 146.55 c 4.53 0 8.22 3.69 8.22 8.22 v 5.55 c 0 4.53 -3.69 8.22 -8.22 8.22 H 204.7 z" stroke-linecap="round" />
</g>
		<g transform="matrix(1 0 0 1 -19.66 134.89)" id="Layer_1"  >
<path style="stroke: none; stroke-width: 1; stroke-dasharray: none; stroke-linecap: butt; stroke-dashoffset: 0; stroke-linejoin: miter; stroke-miterlimit: 4; fill: rgb(195,218,226); fill-rule: nonzero; opacity: 1;"  transform=" translate(-277.98, -555.84)" d="M 351.25 546.34 c 3.71 0 6.72 3.02 6.72 6.72 v 5.55 c 0 3.71 -3.02 6.72 -6.72 6.72 H 204.7 c -3.71 0 -6.72 -3.02 -6.72 -6.72 v -5.55 c 0 -3.71 3.02 -6.72 6.72 -6.72 H 351.25 M 351.25 543.34 H 204.7 c -5.37 0 -9.72 4.35 -9.72 9.72 v 5.55 c 0 5.37 4.35 9.72 9.72 9.72 h 146.55 c 5.37 0 9.72 -4.35 9.72 -9.72 v -5.55 C 360.97 547.7 356.62 543.34 351.25 543.34 L 351.25 543.34 z" stroke-linecap="round" />
</g>
		<g transform="matrix(1 0 0 1 -19.67 -117.11)" id="Layer_1"  >
<path style="stroke: none; stroke-width: 1; stroke-dasharray: none; stroke-linecap: butt; stroke-dashoffset: 0; stroke-linejoin: miter; stroke-miterlimit: 4; fill: rgb(245,244,233); fill-rule: nonzero; opacity: 1;"  transform=" translate(-277.97, -303.84)" d="M 355.87 290.34 c -2.09 -25.62 -36.17 -46 -77.9 -46 s -75.81 20.38 -77.9 46 h -0.1 v 73 h 156 v -73 H 355.87 z" stroke-linecap="round" />
</g>
		<g transform="matrix(1 0 0 1 -19.67 -98.61)" id="Layer_1"  >
<rect style="stroke: none; stroke-width: 1; stroke-dasharray: none; stroke-linecap: butt; stroke-dashoffset: 0; stroke-linejoin: miter; stroke-miterlimit: 4; fill: rgb(195,218,226); fill-rule: nonzero; opacity: 0.26;"  x="-80.5" y="-38.5" rx="0" ry="0" width="161" height="77" />
</g>
		<g transform="matrix(1 0 0 1 -19.66 -98.61)" id="Layer_1"  >
<path style="stroke: none; stroke-width: 1; stroke-dasharray: none; stroke-linecap: butt; stroke-dashoffset: 0; stroke-linejoin: miter; stroke-miterlimit: 4; fill: rgb(195,218,226); fill-rule: nonzero; opacity: 0.26;"  transform=" translate(-277.98, -322.34)" d="M 355.97 286.34 v 72 h -156 v -72 H 355.97 M 358.94 281.34 H 197.01 c -1.12 0 -2.03 0.86 -2.03 1.92 v 80.08 h 166 v -80.08 C 360.97 282.2 360.07 281.34 358.94 281.34 L 358.94 281.34 z" stroke-linecap="round" />
</g>
		<g transform="matrix(1 0 0 1 -19.66 -7.1)" id="Layer_1"  >
<path style="stroke: none; stroke-width: 1; stroke-dasharray: none; stroke-linecap: butt; stroke-dashoffset: 0; stroke-linejoin: miter; stroke-miterlimit: 4; fill: rgb(105,73,41); fill-rule: nonzero; opacity: 0.11;"  transform=" translate(-277.98, -413.85)" d="M 275.41 535.22 c -6.24 0 -11.31 -5.07 -11.31 -11.31 V 303.78 c 0 -6.24 5.07 -11.31 11.31 -11.31 h 5.13 c 6.24 0 11.31 5.07 11.31 11.31 v 220.13 c 0 6.24 -5.07 11.31 -11.31 11.31 H 275.41 z" stroke-linecap="round" />
</g>
		<g transform="matrix(1 0 0 1 -19.66 -7.1)" id="Layer_1"  >
<path style="stroke: none; stroke-width: 1; stroke-dasharray: none; stroke-linecap: butt; stroke-dashoffset: 0; stroke-linejoin: miter; stroke-miterlimit: 4; fill: rgb(195,218,226); fill-rule: nonzero; opacity: 0.11;"  transform=" translate(-277.98, -413.85)" d="M 280.54 292.59 c 6.17 0 11.19 5.02 11.19 11.19 v 220.13 c 0 6.17 -5.02 11.19 -11.19 11.19 h -5.13 c -6.17 0 -11.19 -5.02 -11.19 -11.19 V 303.78 c 0 -6.17 5.02 -11.19 11.19 -11.19 H 280.54 M 280.54 292.34 h -5.13 c -6.32 0 -11.44 5.12 -11.44 11.44 v 220.13 c 0 6.32 5.12 11.44 11.44 11.44 h 5.13 c 6.32 0 11.44 -5.12 11.44 -11.44 V 303.78 C 291.97 297.46 286.85 292.34 280.54 292.34 L 280.54 292.34 z" stroke-linecap="round" />
</g>
		<g transform="matrix(1 0 0 1 -57.67 -7.1)" id="Layer_1"  >
<path style="stroke: none; stroke-width: 1; stroke-dasharray: none; stroke-linecap: butt; stroke-dashoffset: 0; stroke-linejoin: miter; stroke-miterlimit: 4; fill: rgb(105,73,41); fill-rule: nonzero; opacity: 0.11;"  transform=" translate(-239.97, -413.85)" d="M 239.97 535.22 c -6.24 0 -11.31 -5.07 -11.31 -11.31 V 303.78 c 0 -6.24 5.07 -11.31 11.31 -11.31 s 11.31 5.07 11.31 11.31 v 220.13 C 251.29 530.14 246.21 535.22 239.97 535.22 z" stroke-linecap="round" />
</g>
		<g transform="matrix(1 0 0 1 -57.67 -7.1)" id="Layer_1"  >
<path style="stroke: none; stroke-width: 1; stroke-dasharray: none; stroke-linecap: butt; stroke-dashoffset: 0; stroke-linejoin: miter; stroke-miterlimit: 4; fill: rgb(195,218,226); fill-rule: nonzero; opacity: 0.11;"  transform=" translate(-239.97, -413.85)" d="M 239.97 292.59 c 6.17 0 11.19 5.02 11.19 11.19 v 220.13 c 0 6.17 -5.02 11.19 -11.19 11.19 s -11.19 -5.02 -11.19 -11.19 V 303.78 C 228.79 297.61 233.81 292.59 239.97 292.59 M 239.97 292.34 c -6.32 0 -11.44 5.12 -11.44 11.44 v 220.13 c 0 6.32 5.12 11.44 11.44 11.44 s 11.44 -5.12 11.44 -11.44 V 303.78 C 251.41 297.46 246.29 292.34 239.97 292.34 L 239.97 292.34 z" stroke-linecap="round" />
</g>
		<g transform="matrix(1 0 0 1 -85.17 -7.1)" id="Layer_1"  >
<path style="stroke: none; stroke-width: 1; stroke-dasharray: none; stroke-linecap: butt; stroke-dashoffset: 0; stroke-linejoin: miter; stroke-miterlimit: 4; fill: rgb(105,73,41); fill-rule: nonzero; opacity: 0.12;"  transform=" translate(-212.47, -413.84)" d="M 212.47 535.22 c -2.41 0 -4.38 -1.96 -4.38 -4.38 v -234 c 0 -2.41 1.96 -4.38 4.38 -4.38 s 4.38 1.96 4.38 4.38 v 234 C 216.85 533.25 214.89 535.22 212.47 535.22 z" stroke-linecap="round" />
</g>
		<g transform="matrix(1 0 0 1 -85.17 -7.11)" id="Layer_1"  >
<path style="stroke: none; stroke-width: 1; stroke-dasharray: none; stroke-linecap: butt; stroke-dashoffset: 0; stroke-linejoin: miter; stroke-miterlimit: 4; fill: rgb(195,218,226); fill-rule: nonzero; opacity: 0.12;"  transform=" translate(-212.47, -413.84)" d="M 212.47 292.59 c 2.34 0 4.25 1.91 4.25 4.25 v 234 c 0 2.34 -1.91 4.25 -4.25 4.25 s -4.25 -1.91 -4.25 -4.25 v -234 C 208.22 294.5 210.13 292.59 212.47 292.59 M 212.47 292.34 c -2.49 0 -4.5 2.01 -4.5 4.5 v 234 c 0 2.49 2.01 4.5 4.5 4.5 s 4.5 -2.01 4.5 -4.5 v -234 C 216.97 294.36 214.96 292.34 212.47 292.34 L 212.47 292.34 z" stroke-linecap="round" />
</g>
		<g transform="matrix(1 0 0 1 19.2 -7.1)" id="Layer_1"  >
<path style="stroke: none; stroke-width: 1; stroke-dasharray: none; stroke-linecap: butt; stroke-dashoffset: 0; stroke-linejoin: miter; stroke-miterlimit: 4; fill: rgb(105,73,41); fill-rule: nonzero; opacity: 0.11;"  transform=" translate(-316.84, -413.85)" d="M 316.84 535.22 c -6.24 0 -11.31 -5.07 -11.31 -11.31 V 303.78 c 0 -6.24 5.07 -11.31 11.31 -11.31 c 6.24 0 11.31 5.07 11.31 11.31 v 220.13 C 328.15 530.14 323.08 535.22 316.84 535.22 z" stroke-linecap="round" />
</g>
		<g transform="matrix(1 0 0 1 19.2 -7.1)" id="Layer_1"  >
<path style="stroke: none; stroke-width: 1; stroke-dasharray: none; stroke-linecap: butt; stroke-dashoffset: 0; stroke-linejoin: miter; stroke-miterlimit: 4; fill: rgb(195,218,226); fill-rule: nonzero; opacity: 0.11;"  transform=" translate(-316.84, -413.85)" d="M 316.84 292.59 c 6.17 0 11.19 5.02 11.19 11.19 v 220.13 c 0 6.17 -5.02 11.19 -11.19 11.19 c -6.17 0 -11.19 -5.02 -11.19 -11.19 V 303.78 C 305.66 297.61 310.67 292.59 316.84 292.59 M 316.84 292.34 L 316.84 292.34 c -6.32 0 -11.44 5.12 -11.44 11.44 v 220.13 c 0 6.32 5.12 11.44 11.44 11.44 h 0 c 6.32 0 11.44 -5.12 11.44 -11.44 V 303.78 C 328.28 297.46 323.16 292.34 316.84 292.34 L 316.84 292.34 z" stroke-linecap="round" />
</g>
		<g transform="matrix(1 0 0 1 46.7 -7.1)" id="Layer_1"  >
<path style="stroke: none; stroke-width: 1; stroke-dasharray: none; stroke-linecap: butt; stroke-dashoffset: 0; stroke-linejoin: miter; stroke-miterlimit: 4; fill: rgb(105,73,41); fill-rule: nonzero; opacity: 0.12;"  transform=" translate(-344.34, -413.84)" d="M 344.34 535.22 c -2.41 0 -4.38 -1.96 -4.38 -4.38 v -234 c 0 -2.41 1.96 -4.38 4.38 -4.38 s 4.38 1.96 4.38 4.38 v 234 C 348.72 533.25 346.75 535.22 344.34 535.22 z" stroke-linecap="round" />
</g>
		<g transform="matrix(1 0 0 1 46.7 -7.11)" id="Layer_1"  >
<path style="stroke: none; stroke-width: 1; stroke-dasharray: none; stroke-linecap: butt; stroke-dashoffset: 0; stroke-linejoin: miter; stroke-miterlimit: 4; fill: rgb(195,218,226); fill-rule: nonzero; opacity: 0.12;"  transform=" translate(-344.34, -413.84)" d="M 344.34 292.59 c 2.34 0 4.25 1.91 4.25 4.25 v 234 c 0 2.34 -1.91 4.25 -4.25 4.25 s -4.25 -1.91 -4.25 -4.25 v -234 C 340.09 294.5 342 292.59 344.34 292.59 M 344.34 292.34 c -2.49 0 -4.5 2.01 -4.5 4.5 v 234 c 0 2.49 2.01 4.5 4.5 4.5 s 4.5 -2.01 4.5 -4.5 v -234 C 348.84 294.36 346.83 292.34 344.34 292.34 L 344.34 292.34 z" stroke-linecap="round" />
</g>
		<g transform="matrix(1 0 0 1 -47.17 -158.11)" id="Layer_1"  >
<path style="stroke: none; stroke-width: 1; stroke-dasharray: none; stroke-linecap: butt; stroke-dashoffset: 0; stroke-linejoin: miter; stroke-miterlimit: 4; fill: rgb(255,255,255); fill-rule: nonzero; opacity: 1;"  transform=" translate(-250.47, -262.84)" d="M 286.97 248.34 c 0 0 -54 -1 -73 29 C 213.97 277.34 232.97 259.34 286.97 248.34 z" stroke-linecap="round" />
</g>
		<g transform="matrix(1 0 0 1 -18.67 -135.61)" id="Layer_1"  >
<path style="stroke: none; stroke-width: 1; stroke-dasharray: none; stroke-linecap: butt; stroke-dashoffset: 0; stroke-linejoin: miter; stroke-miterlimit: 4; fill: rgb(255,255,255); fill-rule: nonzero; opacity: 0.58;"  transform=" translate(-278.97, -285.34)" d="M 351.97 286.34 h -146 c -0.55 0 -1 -0.45 -1 -1 l 0 0 c 0 -0.55 0.45 -1 1 -1 h 146 c 0.55 0 1 0.45 1 1 l 0 0 C 352.97 285.89 352.53 286.34 351.97 286.34 z" stroke-linecap="round" />
</g>
		<g transform="matrix(1 0 0 1 86.58 -79.36)" id="Layer_1"  >
<path style="stroke: none; stroke-width: 1; stroke-dasharray: none; stroke-linecap: butt; stroke-dashoffset: 0; stroke-linejoin: miter; stroke-miterlimit: 4; fill: rgb(255,255,255); fill-rule: nonzero; opacity: 0.42;"  transform=" translate(-384.22, -341.59)" d="M 361.47 337.84 h 28.59 c 0 0 8.91 1 16.91 7.5 c 0 0 -8 -5 -17 -5 s -28.5 -0.33 -28.5 -0.33 V 337.84 z" stroke-linecap="round" />
</g>
		<g transform="matrix(1 0 0 1 87.83 76.01)" id="Layer_1"  >
<path style="stroke: none; stroke-width: 1; stroke-dasharray: none; stroke-linecap: butt; stroke-dashoffset: 0; stroke-linejoin: miter; stroke-miterlimit: 4; fill: rgb(91,56,38); fill-rule: nonzero; opacity: 0.11;"  transform=" translate(-385.47, -496.95)" d="M 360.97 512.77 v 7.79 c 0 0 30 -12.21 49 -47.21" stroke-linecap="round" />
</g>
		<g transform="matrix(1 0 0 1 -20.16 135.9)" id="Layer_1"  >
<path style="stroke: none; stroke-width: 1; stroke-dasharray: none; stroke-linecap: butt; stroke-dashoffset: 0; stroke-linejoin: miter; stroke-miterlimit: 4; fill: rgb(91,56,38); fill-rule: nonzero; opacity: 0.11;"  transform=" translate(-277.48, -556.85)" d="M 350.99 561.34 H 203.96 c -1.65 0 -2.98 -1.34 -2.98 -2.98 v -3.03 c 0 -1.65 1.34 -2.98 2.98 -2.98 h 147.03 c 1.65 0 2.98 1.34 2.98 2.98 v 3.03 C 353.97 560.01 352.64 561.34 350.99 561.34 z" stroke-linecap="round" />
</g>
</g>
</g>
</svg>