<?xml version="1.0" encoding="utf-8"?>
<!-- Generator: Adobe Illustrator 27.1.1, SVG Export Plug-In . SVG Version: 6.00 Build 0)  -->
<svg version="1.1" id="Layer_1" xmlns="http://www.w3.org/2000/svg" xmlns:xlink="http://www.w3.org/1999/xlink" x="0px" y="0px"
	 viewBox="0 0 595.28 841.89" style="enable-background:new 0 0 595.28 841.89;" xml:space="preserve">
<style type="text/css">
	.st0{fill:#C3DAE2;}
	.st1{fill:#F9CE42;}
	.st2{fill:#F5F4E9;}
	.st3{opacity:0.26;}
	.st4{opacity:0.11;}
	.st5{fill:#694929;}
	.st6{opacity:0.12;}
	.st7{fill:#FFFFFF;}
	.st8{opacity:0.58;fill:#FFFFFF;}
	.st9{opacity:0.42;fill:#FFFFFF;}
	.st10{opacity:0.11;fill:#5B3826;}
</style>
<g>
	<path class="st0" d="M324.61,493.84h-0.52c-12.37,0-22.44-10.07-22.44-22.44V358.28c0-12.38,10.07-22.44,22.44-22.44h65.76
		c12.37,0,22.44,10.07,22.44,22.44V471.4c0,12.34-37.86,50.44-50.83,51.42L324.61,493.84z M359.53,492.22
		c0.38,2.89,2.62,3.13,3.35,3.13c7.62,0,32.62-26.6,32.62-34.71v-91.61c0-9.04-7.35-16.39-16.39-16.39h-44.26
		c-9.04,0-16.39,7.35-16.39,16.39v91.61c0,8.9,7.12,16.16,15.96,16.39L359.53,492.22z"/>
	<path class="st0" d="M389.86,337.34c11.55,0,20.94,9.39,20.94,20.94V471.4c0,4.31-7.07,15.77-20.58,29.31
		c-12.63,12.67-23.45,19.69-28.32,20.54l-35.95-28.27l-0.82-0.64h-1.04c-11.55,0-20.94-9.39-20.94-20.94V358.28
		c0-11.55,9.39-20.94,20.94-20.94H389.86 M333.97,478.52l24.2,14.64c0.66,2.69,2.81,3.7,4.69,3.7c5.88,0,16.22-10.44,20.39-14.93
		c3.22-3.46,13.73-15.24,13.73-21.28v-91.61c0-9.87-8.03-17.89-17.89-17.89h-44.26c-9.87,0-17.89,8.03-17.89,17.89v91.61
		C316.95,470.22,324.51,478.06,333.97,478.52 M389.86,334.34h-65.76c-13.22,0-23.94,10.72-23.94,23.94V471.4
		c0,13.22,10.72,23.94,23.94,23.94l36.88,29c13.22,0,52.82-39.72,52.82-52.94V358.28C413.8,345.06,403.08,334.34,389.86,334.34
		L389.86,334.34z M362.87,493.85c-1.2,0-1.9-0.76-1.9-2.51l-26.13-15.8c-8.23,0-14.89-6.67-14.89-14.89v-91.61
		c0-8.23,6.67-14.89,14.89-14.89h44.26c8.23,0,14.89,6.67,14.89,14.89v91.61C394,467.67,369.9,493.85,362.87,493.85L362.87,493.85z"
		/>
</g>
<g>
	<path class="st1" d="M203.68,564.84c-3.42,0-6.2-2.78-6.2-6.2v-268.6c0-3.42,2.78-6.2,6.2-6.2h148.6c3.42,0,6.2,2.78,6.2,6.2v268.6
		c0,3.42-2.78,6.2-6.2,6.2H203.68z"/>
	<path class="st0" d="M352.27,286.34c2.04,0,3.7,1.66,3.7,3.7v268.6c0,2.04-1.66,3.7-3.7,3.7h-148.6c-2.04,0-3.7-1.66-3.7-3.7
		v-268.6c0-2.04,1.66-3.7,3.7-3.7H352.27 M352.27,281.34h-148.6c-4.81,0-8.7,3.9-8.7,8.7v268.6c0,4.81,3.9,8.7,8.7,8.7h148.6
		c4.81,0,8.7-3.9,8.7-8.7v-268.6C360.97,285.24,357.08,281.34,352.27,281.34L352.27,281.34z"/>
</g>
<g>
	<path class="st0" d="M204.7,566.84c-4.53,0-8.22-3.69-8.22-8.22v-5.55c0-4.53,3.69-8.22,8.22-8.22h146.55
		c4.53,0,8.22,3.69,8.22,8.22v5.55c0,4.53-3.69,8.22-8.22,8.22H204.7z"/>
	<path class="st0" d="M351.25,546.34c3.71,0,6.72,3.02,6.72,6.72v5.55c0,3.71-3.02,6.72-6.72,6.72H204.7
		c-3.71,0-6.72-3.02-6.72-6.72v-5.55c0-3.71,3.02-6.72,6.72-6.72H351.25 M351.25,543.34H204.7c-5.37,0-9.72,4.35-9.72,9.72v5.55
		c0,5.37,4.35,9.72,9.72,9.72h146.55c5.37,0,9.72-4.35,9.72-9.72v-5.55C360.97,547.7,356.62,543.34,351.25,543.34L351.25,543.34z"/>
</g>
<g>
	<path class="st2" d="M355.87,290.34c-2.09-25.62-36.17-46-77.9-46s-75.81,20.38-77.9,46h-0.1v73h156v-73H355.87z"/>
</g>
<g class="st3">
	<rect x="197.47" y="283.84" class="st0" width="161" height="77"/>
	<path class="st0" d="M355.97,286.34v72h-156v-72H355.97 M358.94,281.34H197.01c-1.12,0-2.03,0.86-2.03,1.92v80.08h166v-80.08
		C360.97,282.2,360.07,281.34,358.94,281.34L358.94,281.34z"/>
</g>
<g class="st4">
	<path class="st5" d="M275.41,535.22c-6.24,0-11.31-5.07-11.31-11.31V303.78c0-6.24,5.07-11.31,11.31-11.31h5.13
		c6.24,0,11.31,5.07,11.31,11.31v220.13c0,6.24-5.07,11.31-11.31,11.31H275.41z"/>
	<path class="st0" d="M280.54,292.59c6.17,0,11.19,5.02,11.19,11.19v220.13c0,6.17-5.02,11.19-11.19,11.19h-5.13
		c-6.17,0-11.19-5.02-11.19-11.19V303.78c0-6.17,5.02-11.19,11.19-11.19H280.54 M280.54,292.34h-5.13
		c-6.32,0-11.44,5.12-11.44,11.44v220.13c0,6.32,5.12,11.44,11.44,11.44h5.13c6.32,0,11.44-5.12,11.44-11.44V303.78
		C291.97,297.46,286.85,292.34,280.54,292.34L280.54,292.34z"/>
</g>
<g class="st4">
	<path class="st5" d="M239.97,535.22c-6.24,0-11.31-5.07-11.31-11.31V303.78c0-6.24,5.07-11.31,11.31-11.31s11.31,5.07,11.31,11.31
		v220.13C251.29,530.14,246.21,535.22,239.97,535.22z"/>
	<path class="st0" d="M239.97,292.59c6.17,0,11.19,5.02,11.19,11.19v220.13c0,6.17-5.02,11.19-11.19,11.19s-11.19-5.02-11.19-11.19
		V303.78C228.79,297.61,233.81,292.59,239.97,292.59 M239.97,292.34c-6.32,0-11.44,5.12-11.44,11.44v220.13
		c0,6.32,5.12,11.44,11.44,11.44s11.44-5.12,11.44-11.44V303.78C251.41,297.46,246.29,292.34,239.97,292.34L239.97,292.34z"/>
</g>
<g class="st6">
	<path class="st5" d="M212.47,535.22c-2.41,0-4.38-1.96-4.38-4.38v-234c0-2.41,1.96-4.38,4.38-4.38s4.38,1.96,4.38,4.38v234
		C216.85,533.25,214.89,535.22,212.47,535.22z"/>
	<path class="st0" d="M212.47,292.59c2.34,0,4.25,1.91,4.25,4.25v234c0,2.34-1.91,4.25-4.25,4.25s-4.25-1.91-4.25-4.25v-234
		C208.22,294.5,210.13,292.59,212.47,292.59 M212.47,292.34c-2.49,0-4.5,2.01-4.5,4.5v234c0,2.49,2.01,4.5,4.5,4.5s4.5-2.01,4.5-4.5
		v-234C216.97,294.36,214.96,292.34,212.47,292.34L212.47,292.34z"/>
</g>
<g class="st4">
	<path class="st5" d="M316.84,535.22c-6.24,0-11.31-5.07-11.31-11.31V303.78c0-6.24,5.07-11.31,11.31-11.31
		c6.24,0,11.31,5.07,11.31,11.31v220.13C328.15,530.14,323.08,535.22,316.84,535.22z"/>
	<path class="st0" d="M316.84,292.59c6.17,0,11.19,5.02,11.19,11.19v220.13c0,6.17-5.02,11.19-11.19,11.19
		c-6.17,0-11.19-5.02-11.19-11.19V303.78C305.66,297.61,310.67,292.59,316.84,292.59 M316.84,292.34L316.84,292.34
		c-6.32,0-11.44,5.12-11.44,11.44v220.13c0,6.32,5.12,11.44,11.44,11.44h0c6.32,0,11.44-5.12,11.44-11.44V303.78
		C328.28,297.46,323.16,292.34,316.84,292.34L316.84,292.34z"/>
</g>
<g class="st6">
	<path class="st5" d="M344.34,535.22c-2.41,0-4.38-1.96-4.38-4.38v-234c0-2.41,1.96-4.38,4.38-4.38s4.38,1.96,4.38,4.38v234
		C348.72,533.25,346.75,535.22,344.34,535.22z"/>
	<path class="st0" d="M344.34,292.59c2.34,0,4.25,1.91,4.25,4.25v234c0,2.34-1.91,4.25-4.25,4.25s-4.25-1.91-4.25-4.25v-234
		C340.09,294.5,342,292.59,344.34,292.59 M344.34,292.34c-2.49,0-4.5,2.01-4.5,4.5v234c0,2.49,2.01,4.5,4.5,4.5s4.5-2.01,4.5-4.5
		v-234C348.84,294.36,346.83,292.34,344.34,292.34L344.34,292.34z"/>
</g>
<path class="st7" d="M286.97,248.34c0,0-54-1-73,29C213.97,277.34,232.97,259.34,286.97,248.34z"/>
<path class="st8" d="M351.97,286.34h-146c-0.55,0-1-0.45-1-1l0,0c0-0.55,0.45-1,1-1h146c0.55,0,1,0.45,1,1l0,0
	C352.97,285.89,352.53,286.34,351.97,286.34z"/>
<path class="st9" d="M361.47,337.84h28.59c0,0,8.91,1,16.91,7.5c0,0-8-5-17-5s-28.5-0.33-28.5-0.33V337.84z"/>
<path class="st10" d="M360.97,512.77v7.79c0,0,30-12.21,49-47.21"/>
<path class="st10" d="M350.99,561.34H203.96c-1.65,0-2.98-1.34-2.98-2.98v-3.03c0-1.65,1.34-2.98,2.98-2.98h147.03
	c1.65,0,2.98,1.34,2.98,2.98v3.03C353.97,560.01,352.64,561.34,350.99,561.34z"/>
</svg>
