<?xml version="1.0" encoding="UTF-8" standalone="no" ?>
<!DOCTYPE svg PUBLIC "-//W3C//DTD SVG 1.1//EN" "http://www.w3.org/Graphics/SVG/1.1/DTD/svg11.dtd">
<svg xmlns="http://www.w3.org/2000/svg" xmlns:xlink="http://www.w3.org/1999/xlink" version="1.1" width="220" height="181" viewBox="0 0 220 181" xml:space="preserve">
<desc>Created with Fabric.js 3.6.6</desc>
<defs>
</defs>
<g transform="matrix(1 0 0 1 109.97 90.61)"  >
<g style=""   >
		<g transform="matrix(1 0 0 1 -0.27 -0.06)" id="Layer_1"  >
<path style="stroke: none; stroke-width: 1; stroke-dasharray: none; stroke-linecap: butt; stroke-dashoffset: 0; stroke-linejoin: miter; stroke-miterlimit: 4; fill: rgb(195,218,226); fill-rule: nonzero; opacity: 1;"  transform=" translate(-297.37, -420.89)" d="M 300.84 496.99 c 0.01 -1.32 -0.05 -45.59 -0.09 -68.33 c 13.79 -1.49 24.52 -13.16 24.52 -27.34 c 0 -8.4 -3.77 -15.91 -9.7 -20.96 c 0.87 -9.7 3.6 -37.29 7.58 -49.54 c 0.03 -0.09 -17.69 -0.04 -25.79 -0.01 c -8.1 -0.03 -25.82 -0.08 -25.79 0.01 c 3.98 12.25 6.71 39.84 7.58 49.54 c -5.93 5.04 -9.7 12.56 -9.7 20.96 c 0 14.18 10.73 25.85 24.52 27.34 c -0.03 22.74 -0.1 67.01 -0.09 68.33 c 0.12 11.07 -31.6 11.07 -31.6 11.07 v 2.95 h 35 h 0.09 h 0.09 h 35 v -2.95 C 332.44 508.06 300.72 508.06 300.84 496.99 z" stroke-linecap="round" />
</g>
		<g transform="matrix(1 0 0 1 -0.2 -10.63)" id="Layer_1"  >
<path style="stroke: none; stroke-width: 1; stroke-dasharray: none; stroke-linecap: butt; stroke-dashoffset: 0; stroke-linejoin: miter; stroke-miterlimit: 4; fill: rgb(239,228,117); fill-rule: nonzero; opacity: 0.88;"  transform=" translate(-297.44, -410.32)" d="M 320.44 401.82 c 0 12.7 -10.3 23 -23 23 s -23 -10.3 -23 -23 c 0 -2.08 0.28 -4.09 0.8 -6 h 44.4 C 320.16 397.73 320.44 399.74 320.44 401.82 z" stroke-linecap="round" />
</g>
		<g transform="matrix(1 0 0 1 1.31 42.38)" id="Layer_1"  >
<path style="stroke: none; stroke-width: 1; stroke-dasharray: none; stroke-linecap: butt; stroke-dashoffset: 0; stroke-linejoin: miter; stroke-miterlimit: 4; fill: rgb(105,73,41); fill-rule: nonzero; opacity: 0.11;"  transform=" translate(-298.95, -463.32)" d="M 298.95 497.82 L 298.95 497.82 c -0.28 0 -0.5 -0.22 -0.5 -0.5 v -68 c 0 -0.28 0.22 -0.5 0.5 -0.5 h 0 c 0.28 0 0.5 0.22 0.5 0.5 v 68 C 299.44 497.6 299.22 497.82 298.95 497.82 z" stroke-linecap="round" />
</g>
		<g transform="matrix(1 0 0 1 -17.2 -29.63)" id="Layer_1"  >
<path style="stroke: none; stroke-width: 1; stroke-dasharray: none; stroke-linecap: butt; stroke-dashoffset: 0; stroke-linejoin: miter; stroke-miterlimit: 4; fill: rgb(255,255,255); fill-rule: nonzero; opacity: 0.47;"  transform=" translate(-280.44, -391.32)" d="M 277.96 400.82 c -0.79 -5.57 0.91 -12.01 7.48 -19 c 0 0 -10.56 8.37 -9.97 19 H 277.96 z" stroke-linecap="round" />
</g>
		<g transform="matrix(1 0 0 1 11.04 -12.63)" id="Layer_1"  >
<path style="stroke: none; stroke-width: 1; stroke-dasharray: none; stroke-linecap: butt; stroke-dashoffset: 0; stroke-linejoin: miter; stroke-miterlimit: 4; fill: rgb(91,56,38); fill-rule: nonzero; opacity: 0.1;"  transform=" translate(-308.68, -408.32)" d="M 299.44 418.82 c 0 0 15.74 -3 18.37 -21 C 317.82 397.82 320.44 418.82 299.44 418.82 z" stroke-linecap="round" />
</g>
</g>
</g>
</svg>