<?xml version="1.0" encoding="UTF-8" standalone="no" ?>
<!DOCTYPE svg PUBLIC "-//W3C//DTD SVG 1.1//EN" "http://www.w3.org/Graphics/SVG/1.1/DTD/svg11.dtd">
<svg xmlns="http://www.w3.org/2000/svg" xmlns:xlink="http://www.w3.org/1999/xlink" version="1.1" width="220" height="269" viewBox="0 0 220 269" xml:space="preserve">
<desc>Created with Fabric.js 3.6.6</desc>
<defs>
</defs>
<g transform="matrix(1 0 0 1 110.64 134.94)"  >
<g style=""   >
		<g transform="matrix(1 0 0 1 -0.28 -0.07)" id="Layer_1"  >
<path style="stroke: none; stroke-width: 1; stroke-dasharray: none; stroke-linecap: butt; stroke-dashoffset: 0; stroke-linejoin: miter; stroke-miterlimit: 4; fill: rgb(195,218,226); fill-rule: nonzero; opacity: 1;"  transform=" translate(-297.36, -420.87)" d="M 305.1 536.12 c 0.04 -2.41 -0.24 -110.47 -0.24 -110.47 c 32.88 -4.36 58.5 -39.11 58.5 -81.33 c 0 -2.93 -0.13 -8.69 -0.13 -8.69 c -0.65 -17.81 -3.81 -34.48 -8.88 -49.01 h -0.16 h -56.83 h -56.83 h -0.16 c -5.07 14.54 -8.23 31.2 -8.88 49.01 c 0 0 -0.13 5.75 -0.13 8.69 c 0 42.22 25.62 76.96 58.5 81.33 c 0 0 -0.28 108.07 -0.24 110.47 c 0.26 15 -70.26 15 -70.26 15 v 4 h 78 h 78 v -4 C 375.36 551.12 304.84 551.12 305.1 536.12 z" stroke-linecap="round" />
</g>
		<g transform="matrix(1 0 0 1 0.3 -35.42)" id="Layer_1"  >
<path style="stroke: none; stroke-width: 1; stroke-dasharray: none; stroke-linecap: butt; stroke-dashoffset: 0; stroke-linejoin: miter; stroke-miterlimit: 4; fill: rgb(128,24,50); fill-rule: nonzero; opacity: 1;"  transform=" translate(-297.94, -385.53)" d="M 237.44 349.06 c 0.96 40.48 27.67 72.94 60.5 72.94 s 59.54 -32.46 60.5 -72.94 H 237.44 z" stroke-linecap="round" />
</g>
		<g transform="matrix(1 0 0 1 -2.03 -77.67)" id="Layer_1"  >
<path style="stroke: none; stroke-width: 1; stroke-dasharray: none; stroke-linecap: butt; stroke-dashoffset: 0; stroke-linejoin: miter; stroke-miterlimit: 4; fill: rgb(255,255,255); fill-rule: nonzero; opacity: 0.47;"  transform=" translate(-295.61, -343.28)" d="M 350.44 289.78 v -1 h -104 v 0.5 h -0.49 c -18.49 86.5 18.49 108.5 18.49 108.5 c -27.42 -49.18 -9.93 -102.37 -7.95 -108 H 350.44 z" stroke-linecap="round" />
</g>
		<g transform="matrix(1 0 0 1 3.3 60.83)" id="Layer_1"  >
<path style="stroke: none; stroke-width: 1; stroke-dasharray: none; stroke-linecap: butt; stroke-dashoffset: 0; stroke-linejoin: miter; stroke-miterlimit: 4; fill: rgb(105,73,41); fill-rule: nonzero; opacity: 0.11;"  transform=" translate(-300.94, -481.78)" d="M 300.94 536.78 L 300.94 536.78 c -0.83 0 -1.5 -0.67 -1.5 -1.5 v -107 c 0 -0.83 0.67 -1.5 1.5 -1.5 l 0 0 c 0.83 0 1.5 0.67 1.5 1.5 v 107 C 302.44 536.1 301.77 536.78 300.94 536.78 z" stroke-linecap="round" />
</g>
</g>
</g>
</svg>